<svg width="50" height="61" viewBox="0 0 50 61" fill="none" xmlns="http://www.w3.org/2000/svg">
<path d="M40.5921 57.915H9.5066C6.07291 57.9152 3.28949 55.1777 3.28949 51.8009V9.00195C3.28949 5.62514 6.07291 2.88782 9.5066 2.88782H31.2665L46.8092 18.1731V51.8009C46.8092 55.1777 44.0258 57.9152 40.5921 57.915Z" stroke="black" stroke-width="5" stroke-linecap="round" stroke-linejoin="round"/>
<path d="M21.9408 31.9298C21.9408 28.3999 18.0551 26.1937 14.9465 27.9585C13.5038 28.7776 12.6151 30.2916 12.6151 31.9298V41.101C12.6151 44.631 16.5008 46.8372 19.6094 45.0724C21.0521 44.2532 21.9408 42.7393 21.9408 41.101" stroke="black" stroke-width="5" stroke-linecap="round" stroke-linejoin="round"/>
<path d="M28.1578 27.3444L32.8207 45.6868L37.4835 27.3444" stroke="black" stroke-width="5" stroke-linecap="round" stroke-linejoin="round"/>
</svg>
