<svg width="61" height="61" viewBox="0 0 61 61" fill="none" xmlns="http://www.w3.org/2000/svg">
<path d="M43.7534 3H16.5795C9.07558 3 2.99249 9.08309 2.99249 16.587V43.7609C2.99249 51.2647 9.07558 57.3478 16.5795 57.3478H43.7534C51.2572 57.3478 57.3403 51.2647 57.3403 43.7609V16.587C57.3403 9.08309 51.2572 3 43.7534 3Z" stroke="black" stroke-width="5" stroke-linecap="round" stroke-linejoin="round"/>
<path d="M40.8621 28.288C41.1974 30.5495 40.8111 32.8592 39.7581 34.8886C38.7051 36.9179 37.0391 38.5636 34.9969 39.5915C32.9547 40.6194 30.6404 40.9771 28.3832 40.6139C26.126 40.2507 24.0407 39.185 22.4241 37.5683C20.8075 35.9517 19.7418 33.8665 19.3785 31.6092C19.0153 29.352 19.3731 27.0377 20.401 24.9955C21.4289 22.9534 23.0745 21.2873 25.1039 20.2343C27.1332 19.1813 29.4429 18.795 31.7044 19.1304C34.0113 19.4725 36.147 20.5474 37.796 22.1965C39.445 23.8455 40.52 25.9812 40.8621 28.288Z" stroke="black" stroke-width="5" stroke-linecap="round" stroke-linejoin="round"/>
<path d="M44.9381 15.0543H44.9621" stroke="black" stroke-width="5" stroke-linecap="round" stroke-linejoin="round"/>
</svg>
