<svg width="64" height="61" viewBox="0 0 64 61" fill="none" xmlns="http://www.w3.org/2000/svg">
<path d="M43.1699 20.6143C47.7216 20.6143 52.087 22.4224 55.3056 25.641C58.5241 28.8596 60.3323 33.225 60.3323 37.7767V57.7996H48.8907V37.7767C48.8907 36.2595 48.288 34.8044 47.2151 33.7315C46.1422 32.6586 44.6871 32.0559 43.1699 32.0559C41.6526 32.0559 40.1975 32.6586 39.1246 33.7315C38.0518 34.8044 37.449 36.2595 37.449 37.7767V57.7996H26.0074V37.7767C26.0074 33.225 27.8156 28.8596 31.0342 25.641C34.2527 22.4224 38.6181 20.6143 43.1699 20.6143Z" stroke="black" stroke-width="5" stroke-linecap="round" stroke-linejoin="round"/>
<path d="M14.5657 23.4747H3.12408V57.7997H14.5657V23.4747Z" stroke="black" stroke-width="5" stroke-linecap="round" stroke-linejoin="round"/>
<path d="M8.84491 14.8936C12.0044 14.8936 14.5657 12.3323 14.5657 9.17273C14.5657 6.0132 12.0044 3.4519 8.84491 3.4519C5.68538 3.4519 3.12408 6.0132 3.12408 9.17273C3.12408 12.3323 5.68538 14.8936 8.84491 14.8936Z" stroke="black" stroke-width="5" stroke-linecap="round" stroke-linejoin="round"/>
</svg>
