<svg width="36" height="30" viewBox="0 0 36 30" fill="none" xmlns="http://www.w3.org/2000/svg">
<g clip-path="url(#clip0_143_115)">
<path d="M26.3657 0.0344181C26.3164 0.0561562 26.2262 0.118656 26.1606 0.17844C25.9582 0.357788 25.1325 1.35779 23.9704 2.82246C23.5848 3.30887 23.2184 3.75453 23.1555 3.81159C22.9832 3.96648 22.8219 4.02355 22.6059 4.01268C22.4418 4.00453 22.3981 3.98822 22.0864 3.80887C21.5231 3.48822 21.2004 3.3442 20.6536 3.16485C19.795 2.88768 18.868 2.75181 17.5938 2.72192C15.7672 2.68116 13.8203 2.88496 11.1653 3.39583C10.1317 3.5942 10.0196 3.56703 9.32777 2.93387C8.3598 2.05344 7.27152 1.16757 6.96527 1.0154C6.89144 0.977352 6.76293 0.931156 6.68363 0.914852C6.37191 0.85507 6.04652 1.0317 5.64183 1.48279C5.30277 1.8605 5.10316 2.11866 4.76136 2.63224C3.73871 4.16213 2.68324 5.94203 1.66879 7.84963C0.739098 9.59963 0.0527703 11.0779 0.00628589 11.4312C-0.0319954 11.7192 0.101989 11.8985 0.479333 12.0752C0.919567 12.279 1.12465 12.3931 1.91215 12.8714C3.1891 13.6431 3.3559 13.7328 3.91097 13.9257C4.17894 14.0181 4.42777 14.1132 4.46605 14.1377C4.56449 14.2029 4.5973 14.2844 4.72035 14.7654C4.98285 15.7953 5.01566 16.029 4.91996 16.2355C4.89261 16.2953 4.66293 16.5888 4.40863 16.8877C3.65941 17.7681 3.54183 17.923 3.3805 18.2437C3.21097 18.5779 3.15902 18.7627 3.14535 19.0616C3.13168 19.3931 3.16722 19.5833 3.29027 19.8279C3.41332 20.067 3.56097 20.2328 3.78793 20.3877C4.05863 20.5725 4.3184 20.654 4.67113 20.6703C5.10316 20.6893 5.47777 20.5725 5.75668 20.336C5.87699 20.2355 6.94613 19.1105 8.14652 17.8225C9.16644 16.7301 9.17465 16.7165 9.30043 16.4665C9.40707 16.2518 9.41527 16.2219 9.42347 15.9583C9.43441 15.7301 9.42347 15.6431 9.37699 15.4937C9.2184 14.9774 8.80824 14.5589 8.28051 14.3822C8.16566 14.3442 8.05082 14.3306 7.80199 14.3306C7.27972 14.3306 7.00629 14.4339 6.42113 14.8578C6.18871 15.0263 6.0766 15.0942 6.06293 15.0697C6.04379 15.0344 5.743 13.654 5.65824 13.2056C5.60629 12.9339 5.60629 12.9176 5.65277 12.7708C5.68011 12.6866 6.16957 11.7926 6.74105 10.7844C7.84847 8.83061 8.63051 7.42572 9.04613 6.65398C9.69144 5.44746 9.76254 5.33333 10.025 5.09148C10.1563 4.9692 10.4325 4.82518 10.6731 4.75453C10.9602 4.67029 13.6481 4.25724 14.6653 4.14311C15.6032 4.03442 16.0707 4.00724 17.0032 4.00724C17.5664 4.00453 18.0723 4.01811 18.261 4.03713C20.0629 4.22735 19.9563 4.21377 19.9563 4.27627C19.9563 4.33333 19.9207 4.33877 19.0485 4.46105C18.5481 4.5317 17.8864 4.61322 17.5774 4.64311C16.6614 4.7355 16.2047 4.84692 15.7071 5.0942C15.3407 5.27898 15.1821 5.39311 14.7336 5.79529C14.6379 5.88224 14.2852 6.16757 13.9543 6.43116C13.2106 7.02355 12.9727 7.25453 12.8442 7.50996C12.7621 7.67844 12.7512 7.72192 12.7512 7.91757C12.7512 8.10507 12.7649 8.1567 12.8332 8.29529C12.9371 8.49909 13.1504 8.71376 13.4321 8.89583C14.0938 9.32518 14.6871 9.50181 15.3489 9.47192C15.759 9.4529 16.0899 9.37137 16.5903 9.16485C17.2793 8.88224 17.4379 8.83605 18.1379 8.72192C18.92 8.59148 19.8442 8.4529 20.7082 8.33877C21.4 8.24366 21.5368 8.24637 21.7664 8.34963C21.9059 8.41213 22.1356 8.60507 25.8625 11.8415C27.9543 13.6567 30.4864 15.8687 30.5903 15.9746C31.077 16.4692 31.1426 16.9964 30.7899 17.5725C30.6039 17.8795 30.2703 18.173 29.7727 18.4719C29.4938 18.6404 29.2942 18.7056 29.1192 18.6812C28.8621 18.6485 28.6954 18.5317 27.927 17.8605C26.5954 16.6975 25.1954 15.5127 25.0149 15.3931C24.6895 15.1757 24.4598 15.1431 24.1672 15.2708C23.9485 15.3687 23.8391 15.5154 23.8391 15.7165C23.8391 15.8931 23.9758 16.1187 24.2684 16.4257C24.3395 16.5018 25.1954 17.2328 26.1715 18.0507C27.186 18.904 27.968 19.5779 28.0063 19.6377C28.1157 19.8062 28.1403 19.9257 28.1239 20.211C28.1047 20.5589 28.0473 20.7654 27.8723 21.1241C27.6973 21.4882 27.4485 21.8388 27.175 22.1187C26.9235 22.3741 26.8305 22.4257 26.6145 22.4257C26.475 22.4284 26.4231 22.4121 26.27 22.3279C26.1688 22.2708 25.1489 21.4774 24.0004 20.5616C22.852 19.6485 21.8703 18.8714 21.8184 18.836C21.7391 18.7817 21.6926 18.7735 21.4766 18.7735C21.0282 18.7735 20.875 18.9121 20.8723 19.317C20.8723 19.5562 20.9188 19.6703 21.0883 19.8415C21.3016 20.0589 23.4481 21.7681 24.6895 22.7083C25.2719 23.1485 25.395 23.2708 25.5153 23.5235C25.6 23.7002 25.6028 23.7138 25.6 24.0725C25.5973 24.7029 25.4387 25.1458 25.0969 25.4855C24.6567 25.923 24.0196 26.0181 23.459 25.7301C23.2758 25.635 23.3715 25.711 21.8539 24.4638C20.4129 23.2817 19.5243 22.567 19.3547 22.4502C19.0457 22.2409 18.518 22.0453 18.3403 22.0752C18.1078 22.1159 17.9629 22.3306 17.9602 22.6404C17.9602 22.8741 18.0258 23.0208 18.2172 23.1947C18.2938 23.2654 19.3164 24.0888 20.4868 25.0235C21.6571 25.9556 22.6387 26.7572 22.6661 26.8034C22.7618 26.9583 22.7153 27.2409 22.5348 27.5833C22.3024 28.0235 21.8157 28.3985 21.1321 28.6594C20.9051 28.7464 20.6098 28.7545 20.3965 28.6812C20.2926 28.6458 19.7977 28.3089 18.6602 27.5018C16.8692 26.2301 16.9239 26.2708 16.2457 25.7355L15.7481 25.3415L15.8028 25.2735C15.8301 25.2355 16.0598 24.9828 16.3114 24.7083C17.17 23.7681 17.3012 23.5263 17.2684 22.9312C17.2301 22.2192 16.7461 21.6241 16.0735 21.461C15.6879 21.3687 15.2203 21.4393 14.884 21.6404C14.6625 21.7735 14.6434 21.7926 14.2305 22.2926C13.752 22.8741 13.2106 23.5018 12.2782 24.5589C11.8516 25.0426 11.4606 25.5018 11.4114 25.5806C11.1516 25.9855 11.1844 26.4828 11.5071 26.9882C11.7969 27.4475 12.3219 27.7409 12.8524 27.7409C13.1368 27.7409 13.3118 27.7002 13.577 27.5752C13.8368 27.4529 14.0856 27.2328 14.586 26.6784C14.761 26.4855 14.9114 26.3279 14.9223 26.3279C14.9305 26.3279 15.2887 26.586 15.718 26.904C17.5473 28.2545 18.0121 28.5969 18.7121 29.0942C19.4914 29.6513 19.7293 29.7844 20.134 29.9013C20.9844 30.1431 21.9387 29.8822 22.7946 29.1703C23.2731 28.7735 23.6231 28.2518 23.8254 27.6322C23.9512 27.2464 24.0223 27.1893 24.4243 27.1458C25.045 27.0752 25.5016 26.8632 25.9145 26.4583C26.4614 25.9203 26.743 25.3007 26.8606 24.3714C26.9317 23.8143 26.9782 23.7083 27.2024 23.5969C28.3645 23.01 29.0235 22.0752 29.3243 20.5725C29.3762 20.3143 29.4364 20.067 29.4582 20.0235C29.5102 19.923 29.584 19.885 29.9258 19.7763C31.2082 19.3741 31.993 18.4692 32.2364 17.1159C32.4059 16.192 32.1489 15.548 31.4051 15.0344C31.2192 14.9067 31.0059 14.7328 30.7598 14.5181C30.7297 14.4909 30.7571 14.4393 30.9184 14.2192C31.4379 13.4991 31.8125 12.5725 32.0012 11.5453C32.1516 10.7274 32.1981 10.5915 32.4305 10.2817C32.4989 10.192 32.8543 9.80072 33.2207 9.41213C34.8368 7.7029 34.9953 7.51268 34.9953 7.29257C34.9953 7.17572 34.9461 7.03985 34.8668 6.93116C34.8121 6.8605 27.7411 0.778982 27.1094 0.259962C26.8223 0.0262661 26.5653 -0.0525379 26.3657 0.0344181ZM26.8278 1.72464C26.9207 1.77355 28.2825 2.85779 29.0891 3.52627C29.8055 4.12137 30.4399 4.673 31.7141 5.81159C32.3239 6.35779 32.961 6.91757 33.1305 7.05887C33.4368 7.30887 33.4395 7.31431 33.3903 7.36866C33.3274 7.44203 32.2938 8.56703 31.7825 9.11594C31.5719 9.3442 31.3914 9.52626 31.3805 9.52626C31.3723 9.52355 29.8465 8.27355 27.9899 6.75181C26.136 5.22735 24.6129 3.97735 24.6075 3.97463C24.5965 3.96377 24.9356 3.55887 25.9008 2.42029C26.5243 1.68931 26.5297 1.68116 26.6336 1.68116C26.6938 1.68116 26.7786 1.70018 26.8278 1.72464ZM6.80121 2.33877C6.86957 2.40127 7.21683 2.72192 7.56957 3.05072C7.9223 3.38224 8.32425 3.74637 8.46097 3.8605C8.61957 3.99366 8.73168 4.11322 8.77269 4.19203C8.83558 4.30616 8.83832 4.32246 8.8055 4.44203C8.78636 4.51268 8.7016 4.67572 8.61683 4.80344C8.53207 4.93116 7.6516 6.50453 6.66176 8.298C5.66918 10.0915 4.70941 11.8252 4.52894 12.1513C4.20902 12.7274 4.19808 12.7437 4.1434 12.7056C4.11058 12.6839 3.50629 12.3333 2.79808 11.9257C2.08988 11.5181 1.49925 11.173 1.48011 11.1594C1.4555 11.1404 1.58675 10.8578 1.98324 10.0697C3.67855 6.69746 5.02933 4.41757 6.56058 2.35235C6.61254 2.28442 6.65902 2.22735 6.66449 2.22463C6.66996 2.22463 6.73285 2.27627 6.80121 2.33877Z" fill="black"/>
<path d="M10.4724 16.8207C10.2481 16.8615 9.99657 16.9566 9.82977 17.0626C9.73407 17.1251 9.4661 17.3778 9.15165 17.7066C6.98329 19.9675 6.10555 21.068 5.92509 21.7528C5.86766 21.9648 5.86766 22.3832 5.92509 22.5925C6.0454 23.0409 6.39813 23.4648 6.81649 23.6659C6.95595 23.7311 7.13915 23.7936 7.28134 23.8207L7.51649 23.8669L7.81454 23.7202L8.11259 23.5735L8.90282 22.6903C10.4368 20.9784 12.0446 19.1414 12.1321 19.0082C12.2552 18.818 12.3099 18.6197 12.3099 18.3561C12.3099 18.0816 12.2579 17.8778 12.1184 17.6115C11.9325 17.2555 11.6153 16.9811 11.2708 16.8724C11.0712 16.8099 10.672 16.7827 10.4724 16.8207Z" fill="black"/>
<path d="M13.0482 19.28C12.7419 19.3371 12.4411 19.4974 12.1704 19.7501C11.8314 20.0653 9.00948 23.2256 8.66222 23.6794C8.43527 23.9756 8.29034 24.386 8.29034 24.7256C8.29308 25.4811 8.8673 26.1686 9.62472 26.3235C10.1196 26.424 10.6583 26.2148 11.1095 25.7419C11.1806 25.6713 11.7575 25.0055 12.3974 24.2664C14.9568 21.299 14.9458 21.3126 15.0333 20.9512C15.1536 20.4485 14.9485 19.9023 14.511 19.5735C14.1173 19.2746 13.6251 19.1767 13.0482 19.28Z" fill="black"/>
</g>
<defs>
<clipPath id="clip0_143_115">
<rect width="35" height="30" fill="white" transform="translate(0.333313)"/>
</clipPath>
</defs>
</svg>
