<svg width="61" height="61" viewBox="0 0 61 61" fill="none" xmlns="http://www.w3.org/2000/svg">
<path d="M50.8456 9.91877C45.4186 4.4788 38.1912 1.48682 30.5105 1.48682C14.6568 1.48682 1.75635 14.3873 1.75635 30.2409C1.75635 35.3053 3.07748 40.2531 5.59023 44.618L1.51025 59.5131L16.7551 55.5109C20.9517 57.8034 25.6793 59.008 30.4975 59.008H30.5105C46.3511 59.008 59.5366 46.1075 59.5366 30.2539C59.5366 22.5732 56.2726 15.3587 50.8456 9.91877ZM30.5105 54.1638C26.2103 54.1638 22.0008 53.0111 18.3353 50.8351L17.4675 50.317L8.42678 52.6873L10.8359 43.8668L10.266 42.9601C7.86983 39.1521 6.61346 34.7613 6.61346 30.2409C6.61346 17.0684 17.338 6.34393 30.5234 6.34393C36.9089 6.34393 42.9058 8.83077 47.4132 13.3511C51.9206 17.8715 54.6924 23.8684 54.6795 30.2539C54.6795 43.4393 43.683 54.1638 30.5105 54.1638ZM43.6182 36.2638C42.9058 35.9011 39.3698 34.1655 38.7093 33.9323C38.0487 33.6862 37.5695 33.5697 37.0902 34.295C36.611 35.0203 35.2381 36.6264 34.8106 37.1186C34.3962 37.5978 33.9687 37.6626 33.2564 37.2999C29.0339 35.1887 26.2621 33.5308 23.4774 28.7514C22.7391 27.4821 24.2156 27.5728 25.5886 24.8269C25.8217 24.3476 25.7052 23.9332 25.5238 23.5705C25.3425 23.2078 23.9048 19.6719 23.309 18.2341C22.7261 16.8353 22.1303 17.0296 21.6899 17.0037C21.2755 16.9778 20.7962 16.9778 20.317 16.9778C19.8378 16.9778 19.0606 17.1591 18.4001 17.8715C17.7395 18.5968 15.8873 20.3324 15.8873 23.8684C15.8873 27.4044 18.4648 30.8238 18.8145 31.303C19.1772 31.7823 23.8789 39.0355 31.0933 42.1571C35.6525 44.1258 37.4399 44.2942 39.7195 43.9574C41.1054 43.7502 43.9679 42.2218 44.5637 40.538C45.1595 38.8542 45.1595 37.4165 44.9782 37.1186C44.8098 36.7948 44.3306 36.6135 43.6182 36.2638Z" fill="black"/>
</svg>
